# xmcd
#
# Track frame offsets:
#      150
#      19104
#      38559
#      58899
#      74389
#      83856
#      95260
#      113502
#      129192
#      148416
#      189235
# 
# Disc length: 2883 seconds
#
# Revision: 1
# Processed by: cddbd v1.4PL0 Copyright (c) Steve Scherf et al.
#
# Submitted via: FreeRIP 1.21
#
DISCID=8e0b410b
DTITLE=Peter Rowan and Don Edwards - High Lonesome Cowboy
DYEAR=2002
DGENRE=Country
TTITLE0=Take Me Back to the Range
TTITLE1=The Old Chisholm Trail
TTITLE2=Ramblin' Cowboy
TTITLE3=Reno Blues (Philadelphia Lawyer)
TTITLE4=The Old Grey Mare Came Tearing out of the Wilderness
TTITLE5=Trail to Mexico
TTITLE6=The Night Guard
TTITLE7=Buddies in the Saddle
TTITLE8=Goodbye Old Paint
TTITLE9=Midnight on the Stormy Deep
TTITLE10=I'm Going to Leave Old Texas Now
EXTD=with Tony Rice and Norman Blake
EXTT0=
EXTT1=
EXTT2=
EXTT3=
EXTT4=
EXTT5=
EXTT6=
EXTT7=
EXTT8=
EXTT9=
EXTT10=
PLAYORDER=
